<svg xmlns="http://www.w3.org/2000/svg" version="1.1" xmlns:xlink="http://www.w3.org/1999/xlink" xmlns:svgjs="http://svgjs.com/svgjs" width="1440" height="560" preserveAspectRatio="none" viewBox="0 0 1440 560"><g mask="url(&quot;#SvgjsMask2458&quot;)" fill="none"><rect width="1440" height="560" x="0" y="0" fill="url(#SvgjsLinearGradient2459)"></rect><path d="M1440 0L980.23 0L1440 142.58z" fill="rgba(255, 255, 255, .1)"></path><path d="M980.23 0L1440 142.58L1440 340.67L803.01 0z" fill="rgba(255, 255, 255, .075)"></path><path d="M803.01 0L1440 340.67L1440 468.85L377.53999999999996 0z" fill="rgba(255, 255, 255, .05)"></path><path d="M377.53999999999996 0L1440 468.85L1440 496.88L182.64999999999998 0z" fill="rgba(255, 255, 255, .025)"></path><path d="M0 560L582.5 560L0 360.21000000000004z" fill="rgba(0, 0, 0, .1)"></path><path d="M0 360.21000000000004L582.5 560L963.89 560L0 165.18000000000004z" fill="rgba(0, 0, 0, .075)"></path><path d="M0 165.18L963.89 560L1098.74 560L0 108.45000000000002z" fill="rgba(0, 0, 0, .05)"></path><path d="M0 108.44999999999999L1098.74 560L1151.8 560L0 59.95999999999999z" fill="rgba(0, 0, 0, .025)"></path></g><defs><mask id="SvgjsMask2458"><rect width="1440" height="560" fill="#ffffff"></rect></mask><linearGradient x1="15.28%" y1="-39.29%" x2="84.72%" y2="139.29%" gradientUnits="userSpaceOnUse" id="SvgjsLinearGradient2459"><stop stop-color="#0e2a47" offset="0"></stop><stop stop-color="rgba(133, 63, 255, 1)" offset="1"></stop></linearGradient></defs></svg>