<svg xmlns="http://www.w3.org/2000/svg" version="1.1" xmlns:xlink="http://www.w3.org/1999/xlink" xmlns:svgjs="http://svgjs.com/svgjs" width="1440" height="560" preserveAspectRatio="none" viewBox="0 0 1440 560"><g mask="url(&quot;#SvgjsMask1000&quot;)" fill="none"><rect width="1440" height="560" x="0" y="0" fill="#1e3266"></rect><path d="M1488 560L0 560 L0 321.89Q56.76 306.65, 72 363.41Q79.97 299.38, 144 307.36Q168.69 260.05, 216 284.74Q294.69 243.43, 336 322.12Q390.6 304.72, 408 359.32Q431.7 311.02, 480 334.72Q525.78 260.5, 600 306.29Q657.69 291.99, 672 349.68Q717.35 275.02, 792 320.37Q832.69 241.06, 912 281.75Q958.34 256.09, 984 302.43Q1053.23 299.66, 1056 368.9Q1085.66 326.56, 1128 356.23Q1172.86 281.09, 1248 325.94Q1328.21 286.15, 1368 366.36Q1416.74 295.11, 1488 343.85z" fill="#182f5d"></path><path d="M1512 560L0 560 L0 391.75Q22.69 342.44, 72 365.12Q126.56 347.68, 144 402.23Q219.94 358.17, 264 434.11Q286.77 336.88, 384 359.66Q452.54 308.2, 504 376.73Q583.64 336.37, 624 416.01Q697.85 369.86, 744 443.7Q784.72 364.42, 864 405.15Q884.98 354.13, 936 375.1Q1024.43 343.54, 1056 431.97Q1083.04 387, 1128 414.04Q1169.71 335.75, 1248 377.47Q1278.16 335.63, 1320 365.8Q1403.09 328.88, 1440 411.97Q1445.82 345.79, 1512 351.61z" fill="#25467d"></path><path d="M1488 560L0 560 L0 498.83Q42.25 469.07, 72 511.32Q75.82 443.14, 144 446.97Q198.11 381.08, 264 435.18Q321.05 420.23, 336 477.27Q388.39 457.66, 408 510.05Q438.33 420.38, 528 450.72Q580.68 383.4, 648 436.08Q712.09 428.16, 720 492.25Q769.22 421.47, 840 470.69Q886.01 396.7, 960 442.71Q1048.33 411.03, 1080 499.36Q1093.21 440.58, 1152 453.79Q1181.43 411.22, 1224 440.65Q1275.28 371.93, 1344 423.21Q1408.93 416.14, 1416 481.08Q1469.98 463.06, 1488 517.04z" fill="#356cb1"></path><path d="M1536 560L0 560 L0 585.61Q59.54 525.15, 120 584.69Q134.91 527.61, 192 542.52Q232.88 463.4, 312 504.29Q342.13 462.42, 384 492.54Q436.08 472.62, 456 524.7Q497.61 494.31, 528 535.92Q600.63 488.54, 648 561.17Q675.44 468.61, 768 496.04Q816.61 472.65, 840 521.27Q892.04 501.31, 912 553.35Q918.44 487.79, 984 494.23Q1051.72 441.95, 1104 509.66Q1178.75 464.41, 1224 539.16Q1289.76 484.91, 1344 550.67Q1392.56 527.23, 1416 575.79Q1437.85 477.64, 1536 499.49z" fill="white"></path></g><defs><mask id="SvgjsMask1000"><rect width="1440" height="560" fill="#ffffff"></rect></mask></defs></svg>